<svg viewBox="0 0 1200 900" xmlns="http://www.w3.org/2000/svg">
  <!-- Background -->
  <rect width="1200" height="900" fill="#f8f9fa" rx="10" ry="10"/>
  <text x="600" y="50" font-family="Arial" font-size="28" text-anchor="middle" font-weight="bold">Local Feature Enhancer: Mathematical Visualization</text>
  
  <!-- Input Features -->
  <rect x="50" y="100" width="200" height="80" fill="#e3f2fd" stroke="#1565c0" stroke-width="2" rx="5" ry="5"/>
  <text x="150" y="130" font-family="Arial" font-size="16" text-anchor="middle" font-weight="bold">Input Features F_in</text>
  <text x="150" y="155" font-family="Arial" font-size="12" text-anchor="middle">From Dynamic Multi-Scale Fusion</text>
  <text x="150" y="175" font-family="Arial" font-size="12" text-anchor="middle">B×L×D tensor</text>
  
  <!-- 1. Feature Transformation -->
  <rect x="350" y="100" width="220" height="80" fill="#e8f5e9" stroke="#2e7d32" stroke-width="2" rx="5" ry="5"/>
  <text x="460" y="130" font-family="Arial" font-size="16" text-anchor="middle" font-weight="bold">Feature Transformation</text>
  <text x="460" y="155" font-family="Arial" font-size="12" text-anchor="middle">F_trans = GELU(LN(W_t·F_in + b_t))</text>
  <text x="460" y="175" font-family="Arial" font-size="12" text-anchor="middle">Linear → LayerNorm → GELU</text>
  
  <!-- Branch for Different Processing Paths -->
  <!-- 2. Multi-Head Attention -->
  <rect x="200" y="250" width="220" height="130" fill="#fff8e1" stroke="#ff8f00" stroke-width="2" rx="5" ry="5"/>
  <text x="310" y="275" font-family="Arial" font-size="16" text-anchor="middle" font-weight="bold">Multi-Head Attention</text>
  <text x="310" y="300" font-family="Arial" font-size="12" text-anchor="middle">Q_i = W^Q_i·F_trans</text>
  <text x="310" y="320" font-family="Arial" font-size="12" text-anchor="middle">K_i = W^K_i·F_trans</text>
  <text x="310" y="340" font-family="Arial" font-size="12" text-anchor="middle">V_i = W^V_i·F_trans</text>
  <text x="310" y="360" font-family="Arial" font-size="12" text-anchor="middle">A_i = Softmax(Q_i·K_i^T/√d)</text>
  <text x="310" y="380" font-family="Arial" font-size="12" text-anchor="middle">MHA = W^O·[A_1·V_1;...;A_h·V_h]</text>
  
  <!-- 3. Spatial Region Attention -->
  <rect x="450" y="250" width="220" height="130" fill="#f3e5f5" stroke="#6a1b9a" stroke-width="2" rx="5" ry="5"/>
  <text x="560" y="275" font-family="Arial" font-size="16" text-anchor="middle" font-weight="bold">Spatial Region Attention</text>
  <text x="560" y="300" font-family="Arial" font-size="12" text-anchor="middle">For r in {above, middle, below}:</text>
  <text x="560" y="320" font-family="Arial" font-size="12" text-anchor="middle">F_r = F_trans ⊙ M_r</text>
  <text x="560" y="340" font-family="Arial" font-size="12" text-anchor="middle">A_r = Softmax(W^A_r·GELU(W^F_r·F_r))</text>
  <text x="560" y="360" font-family="Arial" font-size="12" text-anchor="middle">R_r = A_r ⊙ F_r</text>
  <text x="560" y="380" font-family="Arial" font-size="12" text-anchor="middle">F_spatial = W^R·[R_above;R_middle;R_below]</text>
  
  <!-- 4. Diacritic Prototype Learning -->
  <rect x="700" y="250" width="220" height="130" fill="#ffcdd2" stroke="#c62828" stroke-width="2" rx="5" ry="5"/>
  <text x="810" y="275" font-family="Arial" font-size="16" text-anchor="middle" font-weight="bold">Diacritic Prototypes</text>
  <text x="810" y="300" font-family="Arial" font-size="12" text-anchor="middle">P = {P_1, P_2, ..., P_K}</text>
  <text x="810" y="320" font-family="Arial" font-size="12" text-anchor="middle">S_k = cosine_similarity(F_trans, P_k)</text>
  <text x="810" y="340" font-family="Arial" font-size="12" text-anchor="middle">Weights = Softmax(S_k)</text>
  <text x="810" y="360" font-family="Arial" font-size="12" text-anchor="middle">F_proto = Σ(Weights_k · P_k)</text>
  <text x="810" y="380" font-family="Arial" font-size="12" text-anchor="middle">Learnable prototypes for diacritics</text>
  
  <!-- 5. Feature Integration -->
  <rect x="450" y="450" width="300" height="100" fill="#e0f7fa" stroke="#006064" stroke-width="2" rx="5" ry="5"/>
  <text x="600" y="480" font-family="Arial" font-size="16" text-anchor="middle" font-weight="bold">Feature Integration</text>
  <text x="600" y="505" font-family="Arial" font-size="12" text-anchor="middle">F_combined = W^C·[F_trans; MHA; F_spatial; F_proto]</text>
  <text x="600" y="525" font-family="Arial" font-size="12" text-anchor="middle">Combines all enhanced features</text>
  <text x="600" y="545" font-family="Arial" font-size="12" text-anchor="middle">B×L×D tensor</text>
  
  <!-- 6. Final Layer Normalization -->
  <rect x="450" y="600" width="300" height="80" fill="#ede7f6" stroke="#4527a0" stroke-width="2" rx="5" ry="5"/>
  <text x="600" y="630" font-family="Arial" font-size="16" text-anchor="middle" font-weight="bold">Final Layer Normalization</text>
  <text x="600" y="655" font-family="Arial" font-size="12" text-anchor="middle">F_out = LN(F_in + Dropout(F_combined))</text>
  <text x="600" y="675" font-family="Arial" font-size="12" text-anchor="middle">Residual connection + normalization</text>
  
  <!-- Output -->
  <rect x="525" y="730" width="150" height="60" fill="#d1c4e9" stroke="#311b92" stroke-width="2" rx="5" ry="5"/>
  <text x="600" y="760" font-family="Arial" font-size="16" text-anchor="middle" font-weight="bold">Enhanced Features</text>
  <text x="600" y="780" font-family="Arial" font-size="12" text-anchor="middle">B×L×D tensor</text>
  
  <!-- Example Visualization for Vietnamese "á" -->
  <!-- Character Feature Map visualization -->
  <rect x="50" y="250" width="120" height="430" fill="white" stroke="#757575" stroke-width="2" rx="5" ry="5"/>
  <text x="110" y="275" font-family="Arial" font-size="16" text-anchor="middle" font-weight="bold" transform="translate(0, 0)">Vietnamese "á"</text>
  
  <!-- Simple "á" visualization -->
  <text x="110" y="320" font-family="Arial" font-size="42" text-anchor="middle">á</text>
  
  <!-- Feature visualizations -->
  <text x="110" y="370" font-family="Arial" font-size="12" text-anchor="middle" font-weight="bold">Feature Regions</text>
  
  <!-- Regions -->
  <rect x="70" y="380" width="80" height="20" fill="#bbdefb" stroke="#1976d2" stroke-width="1"/>
  <text x="110" y="395" font-family="Arial" font-size="10" text-anchor="middle">Above Region</text>
  
  <rect x="70" y="405" width="80" height="30" fill="#c8e6c9" stroke="#388e3c" stroke-width="1"/>
  <text x="110" y="425" font-family="Arial" font-size="10" text-anchor="middle">Middle Region</text>
  
  <rect x="70" y="440" width="80" height="20" fill="#ffecb3" stroke="#ffa000" stroke-width="1"/>
  <text x="110" y="455" font-family="Arial" font-size="10" text-anchor="middle">Below Region</text>
  
  <!-- Prototype matching -->
  <text x="110" y="480" font-family="Arial" font-size="12" text-anchor="middle" font-weight="bold">Prototype Matches</text>
  
  <rect x="65" y="490" width="90" height="15" fill="#ef9a9a" stroke="#c62828" stroke-width="1"/>
  <text x="110" y="502" font-family="Arial" font-size="10" text-anchor="middle">Acute: 0.87</text>
  
  <rect x="65" y="510" width="90" height="15" fill="#ffcdd2" stroke="#c62828" stroke-width="1"/>
  <text x="110" y="522" font-family="Arial" font-size="10" text-anchor="middle">Grave: 0.24</text>
  
  <rect x="65" y="530" width="90" height="15" fill="#ffebee" stroke="#c62828" stroke-width="1"/>
  <text x="110" y="542" font-family="Arial" font-size="10" text-anchor="middle">Hook: 0.18</text>
  
  <rect x="65" y="550" width="90" height="15" fill="#ffebee" stroke="#c62828" stroke-width="1"/>
  <text x="110" y="562" font-family="Arial" font-size="10" text-anchor="middle">Tilde: 0.12</text>
  
  <rect x="65" y="570" width="90" height="15" fill="#ffebee" stroke="#c62828" stroke-width="1"/>
  <text x="110" y="582" font-family="Arial" font-size="10" text-anchor="middle">Dot: 0.05</text>
  
  <!-- Attention visualizations -->
  <text x="110" y="600" font-family="Arial" font-size="12" text-anchor="middle" font-weight="bold">Attention Maps</text>
  
  <!-- Simple heatmaps -->
  <rect x="80" y="610" width="15" height="15" fill="#ffe0b2" stroke="#757575" stroke-width="0.5"/>
  <rect x="95" y="610" width="15" height="15" fill="#ffb74d" stroke="#757575" stroke-width="0.5"/>
  <rect x="110" y="610" width="15" height="15" fill="#ffe0b2" stroke="#757575" stroke-width="0.5"/>
  
  <rect x="80" y="625" width="15" height="15" fill="#ffcc80" stroke="#757575" stroke-width="0.5"/>
  <rect x="95" y="625" width="15" height="15" fill="#ff9800" stroke="#757575" stroke-width="0.5"/>
  <rect x="110" y="625" width="15" height="15" fill="#ffcc80" stroke="#757575" stroke-width="0.5"/>
  
  <rect x="80" y="640" width="15" height="15" fill="#ffe0b2" stroke="#757575" stroke-width="0.5"/>
  <rect x="95" y="640" width="15" height="15" fill="#ffb74d" stroke="#757575" stroke-width="0.5"/>
  <rect x="110" y="640" width="15" height="15" fill="#ffe0b2" stroke="#757575" stroke-width="0.5"/>
  
  <rect x="80" y="655" width="15" height="15" fill="#fff3e0" stroke="#757575" stroke-width="0.5"/>
  <rect x="95" y="655" width="15" height="15" fill="#ffe0b2" stroke="#757575" stroke-width="0.5"/>
  <rect x="110" y="655" width="15" height="15" fill="#fff3e0" stroke="#757575" stroke-width="0.5"/>
  
  <!-- Detailed explanation box -->
  <rect x="950" y="250" width="220" height="330" fill="white" stroke="#757575" stroke-width="2" rx="5" ry="5"/>
  <text x="1060" y="275" font-family="Arial" font-size="16" text-anchor="middle" font-weight="bold">Example: Enhancing "á"</text>
  
  <text x="960" y="300" font-family="Arial" font-size="12" text-anchor="start" font-weight="bold">1. Feature Transformation</text>
  <text x="970" y="320" font-family="Arial" font-size="11" text-anchor="start">- Enhances local patterns</text>
  <text x="970" y="335" font-family="Arial" font-size="11" text-anchor="start">- Amplifies high-frequency details</text>
  
  <text x="960" y="355" font-family="Arial" font-size="12" text-anchor="start" font-weight="bold">2. Multi-Head Attention</text>
  <text x="970" y="375" font-family="Arial" font-size="11" text-anchor="start">- Head 1: Overall shape</text>
  <text x="970" y="390" font-family="Arial" font-size="11" text-anchor="start">- Head 2: Diagonal strokes</text>
  <text x="970" y="405" font-family="Arial" font-size="11" text-anchor="start">- Head 3: Base-diacritic connection</text>
  <text x="970" y="420" font-family="Arial" font-size="11" text-anchor="start">- Head 4: Fine-grained textures</text>
  
  <text x="960" y="440" font-family="Arial" font-size="12" text-anchor="start" font-weight="bold">3. Spatial Region Attention</text>
  <text x="970" y="460" font-family="Arial" font-size="11" text-anchor="start">- Above: Strong on acute accent</text>
  <text x="970" y="475" font-family="Arial" font-size="11" text-anchor="start">- Middle: Focus on circular part</text>
  <text x="970" y="490" font-family="Arial" font-size="11" text-anchor="start">- Below: Minimal activation</text>
  
  <text x="960" y="510" font-family="Arial" font-size="12" text-anchor="start" font-weight="bold">4. Prototype Matching</text>
  <text x="970" y="530" font-family="Arial" font-size="11" text-anchor="start">- Highest match: Acute (0.87)</text>
  <text x="970" y="545" font-family="Arial" font-size="11" text-anchor="start">- Distinguishes from grave,</text>
  <text x="970" y="560" font-family="Arial" font-size="11" text-anchor="start">  hook, tilde, and dot</text>
  
  <!-- Connection lines -->
  <!-- From input to feature transformation -->
  <path d="M250 140 H350" fill="none" stroke="#1565c0" stroke-width="2" marker-end="url(#arrowhead)"/>
  
  <!-- From feature transformation to branches -->
  <path d="M460 180 L460 200 Q460 205 455 210 L420 225 Q410 230 400 235 L310 250" fill="none" stroke="#2e7d32" stroke-width="2" marker-end="url(#arrowhead)"/>
  <path d="M460 180 L460 235 Q460 240 460 250" fill="none" stroke="#2e7d32" stroke-width="2" marker-end="url(#arrowhead)"/>
  <path d="M460 180 L460 200 Q460 205 465 210 L500 225 Q510 230 520 235 L600 240 Q650 245 690 250 L810 250" fill="none" stroke="#2e7d32" stroke-width="2" marker-end="url(#arrowhead)"/>
  
  <!-- From branches to integration -->
  <path d="M310 380 L310 415 Q310 425 320 425 H450" fill="none" stroke="#ff8f00" stroke-width="2" marker-end="url(#arrowhead)"/>
  <path d="M560 380 L560 425 Q560 435 560 450" fill="none" stroke="#6a1b9a" stroke-width="2" marker-end="url(#arrowhead)"/>
  <path d="M810 380 L810 415 Q810 425 800 425 H750" fill="none" stroke="#c62828" stroke-width="2" marker-end="url(#arrowhead)"/>
  
  <!-- From integration to layernorm -->
  <path d="M600 550 L600 600" fill="none" stroke="#006064" stroke-width="2" marker-end="url(#arrowhead)"/>
  
  <!-- From layernorm to output -->
  <path d="M600 680 L600 730" fill="none" stroke="#4527a0" stroke-width="2" marker-end="url(#arrowhead)"/>
  
  <!-- Residual connection from input to layernorm -->
  <path d="M150 180 L150 640 H450" fill="none" stroke="#1565c0" stroke-width="2" stroke-dasharray="5,5" marker-end="url(#arrowhead)"/>
  
  <!-- Additional Key Comparison Box -->
  <rect x="950" y="600" width="220" height="190" fill="white" stroke="#757575" stroke-width="2" rx="5" ry="5"/>
  <text x="1060" y="625" font-family="Arial" font-size="16" text-anchor="middle" font-weight="bold">Key Benefits</text>
  
  <text x="960" y="650" font-family="Arial" font-size="12" text-anchor="start">1. Region-specific attention focus</text>
  <text x="960" y="670" font-family="Arial" font-size="12" text-anchor="start">2. Explicit diacritic modeling with</text>
  <text x="970" y="685" font-family="Arial" font-size="12" text-anchor="start">   learnable prototypes</text>
  <text x="960" y="705" font-family="Arial" font-size="12" text-anchor="start">3. Multi-head feature extraction for</text>
  <text x="970" y="720" font-family="Arial" font-size="12" text-anchor="start">   fine-grained patterns</text>
  <text x="960" y="740" font-family="Arial" font-size="12" text-anchor="start">4. Integration of multiple enhancement</text>
  <text x="970" y="755" font-family="Arial" font-size="12" text-anchor="start">   techniques for robust detection</text>
  <text x="960" y="775" font-family="Arial" font-size="12" text-anchor="start">5. Residual connections preserve</text>
  <text x="970" y="790" font-family="Arial" font-size="12" text-anchor="start">   original character information</text>
  
  <!-- Arrow marker definition -->
  <defs>
    <marker id="arrowhead" markerWidth="10" markerHeight="7" refX="9" refY="3.5" orient="auto">
      <polygon points="0 0, 10 3.5, 0 7" fill="#333"/>
    </marker>
  </defs>
</svg>
